Patient4_TMGait_0pt4_03_right_40_EMG.mot
version=1
nRows=33
nColumns=33
inDegrees=no
endheader
time	1LAddLong	2LGlutMax	3LGlutMed	4LIliopsoas	5LSemiMemb	6LBicFemLong	7LRecFem	8LVastMed	9LVastLat	10LGasMed	11LTibAnt	12lTibPost	13LPeroneusLong	14LSol	15LExtDigLong	16LFlexDigLong	17RAddLong	18RGlutMax	19RGlutMed	20RIliopsoas	21RSemiMemb	22RBicFemLong	23RRecFem	24RVastMed	25RVastLat	26RGasMed	27RTibAnt	28RTibPost	29RPeroneusLong	30RSol	31RExtDigLong	32RFlexDigLong
53.74	0.006409	-0.070953	0.005646	0.004883	0.007324	-0.046844	-0.046082	0.003357	-0.006561	0.042267	-0.017395	0.034332	-0.052948	-0.00946	-0.004578	-0.00946	-0.033264	-0.088654	0.15243	0.13168	0.000305	0.18692	0.027466	-0.030823	0.012817	0.002441	-0.41031	-0.004883	0.26184	0.007629	-0.000763	0.005035
53.741	0.006104	-0.051727	0.16327	0.003204	0.00412	-0.041809	0.078735	0.009308	-0.032043	0.006256	0.068054	0.036011	0.41657	0.021667	-0.011292	0.00473	-0.023346	-0.071869	0.30777	0.003815	-0.002441	0.19608	-0.013733	0.057831	0.024414	0.002747	-0.57678	-0.007172	0.22293	-0.02182	-0.002899	0.00946
53.742	0.007782	-0.06546	0.1503	-0.009613	0	-0.021057	0.11551	0.005493	0.088806	-0.035095	0.13687	0.031586	0.74188	0.083618	0.036316	0.002136	-0.024872	-0.053558	0.14008	-0.000153	0.053253	0.20142	0.003357	0.041046	0.014648	-0.003967	-0.29297	-0.005188	-0.018005	0.01358	-0.000305	0.012207
53.743	0.009003	-0.066071	0.14618	0.011902	0.007477	-0.030212	0.084076	0.016479	0.19577	0.005188	0.10605	0.036469	0.46204	0.091248	0.073853	0.005493	-0.011749	-0.066681	0.17197	-0.026703	0.090027	0.17532	0.007477	0.027618	0.00061	-0.006714	-0.10452	-0.01297	0.080109	-0.000305	-0.001984	0.002136
53.744	0.001221	-0.072937	0.15045	0.040283	0.009766	-0.029144	0.009155	0.010529	0.22995	-0.026703	0.057068	0.0354	-0.37064	0.065155	-0.003967	0.003662	0.008087	-0.11078	-0.025635	0.015869	0.018921	0.18967	0.008087	0.021667	0.009766	-0.009918	-0.090332	-0.01236	0.030518	-0.010529	-0.00061	0.007324
53.745	0.015564	-0.033569	0.055237	0.012207	0.017395	-0.013733	-0.054169	-0.003204	0.23117	-0.016327	0.031281	0.041351	-0.28397	-0.02243	-0.15625	0.002441	0.023651	-0.087128	-0.2066	-0.00351	-0.02182	0.16129	0.045929	-0.039978	0.025024	-0.005341	-0.16388	-0.001526	0.21164	-0.072784	0.001678	0.011749
53.746	0.015411	-0.054932	0.068512	0.014038	0.012665	-0.010986	-0.083618	0.000153	0.2153	-0.004425	0.018921	0.042419	-0.14267	0.023499	-0.075989	-0.006256	0.026398	-0.079651	0.068359	0.004272	-0.11063	0.18005	0.031891	-0.065613	0.003204	-0.007019	-0.16556	-0.002136	0.032501	-0.002594	-0.002136	0.018158
53.747	0.010681	-0.027771	0.001984	0.001373	0.011139	-0.003967	-0.076294	-0.001068	0.20187	-0.004425	0.057831	0.04303	0.075378	0.078278	-0.01709	-0.003052	0.046234	-0.056915	0.45746	0.010986	-0.27527	0.24811	0.032806	-0.065002	0.016022	-0.017548	-0.013733	-0.00412	-0.25742	0.069733	-0.008698	0.014038
53.748	0.013428	-0.035553	-0.026398	0.00412	0.005188	0.007629	-0.039215	-0.00824	0.14755	-0.013123	0.077362	0.045624	0.53314	0.098877	-0.014496	-0.007629	0.032501	-0.031586	0.22751	-0.010223	-0.33585	0.30502	-0.008392	-0.00351	0.014801	-0.018768	0.036621	-0.006409	-0.24063	0.065308	-0.005188	0.003967
53.749	0.010681	-0.043182	-0.040894	-0.009155	0.009766	0.019989	-0.008087	-0.005341	0.055237	-0.044708	0.071411	0.045319	0.46066	0.054321	0.016785	0.003967	-0.002136	-0.027771	0.016632	-0.02121	-0.046234	0.29037	-0.013275	0.050964	0.049133	-0.014038	-0.005951	-0.000916	-0.089874	0.049438	-0.006256	-0.016174
53.75	0.008545	-0.039673	0.025177	0.006104	0.007629	0.01709	0.006714	-0.003357	-0.02533	-0.061951	0.007477	0.05188	-0.58518	0.12665	0.1532	0.007477	-0.033417	-0.030975	0.077057	-0.02243	0.13855	0.2858	-0.012207	0.03006	0.032654	-0.009918	0.000916	-0.014801	0.05188	0.053253	-0.004883	-0.14358
53.751	0.008545	-0.035706	0.053864	-0.006561	0.000763	0.022736	0.032043	0.005341	-0.058289	-0.036621	-0.026703	0.044708	-0.80948	0.073547	0.04715	-0.010681	-0.0383	-0.031281	0.18585	-0.015411	-0.050049	0.22247	0.018768	0.033569	0.03067	-0.004883	-0.011139	-0.002289	0.066833	-0.010529	-0.000458	-0.42038
53.752	0.008545	-0.030975	0.13062	-0.028839	0.013123	-0.003815	0.019836	0.005493	-0.033569	0.009613	-0.000458	0.042419	-0.70725	-0.046387	-0.077515	0.007172	-0.029907	-0.024109	-0.24292	0.020294	-0.1384	0.20721	-0.012054	0.019684	0.022125	-0.003662	-0.005188	-0.003052	0.04837	0.025177	-0.003662	-0.44662
53.753	0.004272	-0.023346	0.10483	-0.007935	0.00946	0.001221	0.010376	0.010681	-0.003815	-0.056763	-0.016022	0.037994	0.15121	0.00885	0.001678	-0.000153	-0.00412	0.00061	-0.53406	-0.002289	0.27817	0.21835	0.044403	-0.00824	0.028687	-0.00473	0.066071	-0.012512	-0.089569	0.04837	0.001526	-0.35889
53.754	0.020447	-0.001526	0.030212	0.019836	0.009155	0.005951	-0.000305	-0.005341	-0.000305	-0.033264	0.011139	0.030518	0.10132	0.14206	0.03952	-0.006256	0.006714	0.01709	-0.25101	-0.007019	0.27283	0.25101	0.054779	-0.032959	0.036926	-0.012512	0.071869	-0.000916	0.092926	0.041656	-0.003052	-0.27969
53.755	0.011597	-0.024109	0.004578	0.005341	0.014496	-0.009918	0.040131	-0.011749	0.005341	0.042572	0.030975	0.027161	-0.1294	0.12177	-0.020905	-0.010834	0.018616	-0.00824	-0.40253	-0.027466	0.094757	0.29892	0.054474	-0.006866	0.029755	0.003662	0.015717	-0.005798	0.23102	0.004578	-0.003357	-0.21591
53.756	0.008087	-0.02533	-0.025177	-0.007629	0.015869	-0.004883	0.061646	-0.002899	0.015259	-0.023193	0.013885	0.025024	0.2742	0.007629	-0.11169	0.000763	0.011292	-0.020905	-0.094604	-0.028992	0.015259	0.31021	0.020752	-0.035553	0.046997	0.009613	-0.005493	-0.002136	0.22675	0.014954	-0.003357	-0.16022
53.757	0.015869	0.009155	-0.031738	0.002441	0.023346	0.001221	0.019989	-0.007324	0.032196	-0.084534	-0.027161	0.023041	-0.44769	0.12451	-0.032349	0.010529	-0.018005	0.015259	-0.089417	-0.056152	0.15991	0.3421	0.029907	0.024872	0.047455	0.019989	-0.026398	-0.006866	-0.20538	0.004883	-0.008392	-0.10513
53.758	0.013123	-0.003662	-0.009003	0.025635	0.020142	-0.008698	-0.017853	-0.001221	0.042267	-0.002747	0.023041	0.022888	-0.038757	0.09491	-0.021515	0.002289	-0.010376	-0.081024	0.19577	-0.062408	0.22125	0.30868	0.028229	-0.024109	0.033722	0.020905	0.063477	-0.004578	-0.39002	-0.015411	-0.001221	-0.063629
53.759	0.016327	-0.0383	-0.02594	0.013275	0.01297	0.034485	0.024567	0.001831	0.036316	0.002594	0.02655	0.030212	0.62958	0.061951	0.022736	0.007629	0.023346	-0.092316	0.39307	0.071411	0.14053	0.35355	0.029907	-0.01236	0.045929	0.016174	0.15381	-0.005493	-0.19379	-0.026093	-0.002747	-0.029297
53.76	0.016022	-0.045929	-0.034485	-0.00412	0.003204	0.054169	0.029755	0.000153	-0.003052	-0.056	-0.017548	0.022583	-0.036011	0.020447	0.06424	0.022583	0.042114	-0.13916	-0.006561	0.10254	0.097198	0.32394	0.061951	-0.010529	0.054474	0.018005	0.30426	-0.008087	-0.080872	-0.006561	0.000305	0.001526
53.761	0.014648	-0.036774	-0.005646	0.009308	-0.00885	0.025635	-0.039825	0.001984	-0.032654	-0.021667	-0.002441	0.02121	-0.21942	-0.12665	-0.031128	0.013885	0.057068	-0.07843	-0.28671	0.069427	0.047913	0.27573	0.054321	-0.055084	0.037079	0.017395	0.34851	-0.009766	-0.08194	-0.035095	-0.003662	0.027771
53.762	0.007935	-0.005951	0.10346	-0.003357	0.011444	0.010681	-0.029602	0.018005	-0.032501	-0.014648	-0.007782	0.036621	-0.21225	-0.14053	-0.047302	-0.025177	0.051422	-0.10544	-0.062561	0.026093	-0.024109	0.37872	0.071106	-0.037384	0.03479	0.019226	0.18188	-0.005188	0.015717	-0.086365	-0.00351	0.044708
53.763	0.015259	0.007324	0.11627	0.009918	0.009308	0.02533	0.016174	-0.002289	-0.015869	-0.016785	0.005646	0.042572	0.037231	-0.22339	-0.089722	-0.018005	0.013123	-0.062714	0.045624	-0.001068	0.00885	0.44846	0.028534	0	0.046539	0.030518	0.40497	0.002747	0.086212	-0.13702	-0.002594	0.063324
53.764	0.015564	0.034637	0.055542	-0.009766	0.005951	0.016785	0.018158	-0.005798	-0.007935	0.009003	-0.001526	0.048218	0.10925	-0.18921	0.009918	-0.004883	-0.018616	-0.069122	-0.13489	0.030365	-0.17456	0.52765	0.091858	0.0177	0.058746	0.021515	0.076447	-0.006866	0.018311	-0.097046	-0.003052	0.07019
53.765	0.013275	0.039673	-0.013885	0.015717	0.004425	0.00061	0.032043	0.003052	-0.006866	-0.002136	0.002747	0.063019	0.15564	-0.066071	0.077972	-0.00351	-0.018311	-0.0737	-0.42679	0.066071	-0.32822	0.58273	0.032196	0.001984	0.058289	0.018921	-0.62393	-0.007019	0.04837	-0.060272	-0.002899	0.07431
53.766	0.018921	-0.010834	-0.003204	0.007935	0.004578	-0.009308	0.014496	0.005493	0.00885	0.04364	0.001678	0.063782	0.13031	-0.045319	0.06958	0.011444	-0.00946	-0.091248	-0.44357	0.069427	-0.19959	0.60257	0.066833	-0.027618	0.033264	0.015717	-0.29114	-0.010223	0.05188	0.023193	-0.001526	0.079041
53.767	0.006104	-0.011292	0.001678	-0.00061	0.015869	-0.019684	-0.005951	0.012207	0.013123	0.12207	-0.007935	0.056305	-0.031433	-0.17059	0.015411	-0.003815	-0.009003	-0.11093	-0.18127	0.015717	0.039978	0.61203	0.039673	0.032501	0.037231	0.018311	-0.15564	-0.007019	0.032196	0.043182	-0.000763	0.082092
53.768	0.017853	-0.037384	-0.0737	-0.011749	0.015411	-0.035095	0.01236	0.010376	0.008698	0.14374	-0.012817	0.04364	-0.11078	-0.13229	0.00946	0.009155	-0.042114	-0.13825	0.22888	-0.050201	0.2301	0.62561	0.042877	0.059204	0.039368	0.025635	-0.13336	-0.008087	0.017853	0.058289	-0.001831	0.084381
53.769	0.014343	-0.028381	-0.044403	0.025787	0.011902	-0.027008	0.068817	0.006561	-0.019226	0.1178	-0.014954	0.034027	-0.01236	0.13168	0.019073	0.012665	-0.06073	-0.090179	-0.078583	-0.045471	0.18524	0.62637	0.033875	0.10681	0.07019	0.02594	-0.12009	-0.003967	0.035095	0.042877	-0.004578	0.074921
53.77	0.012054	-0.014801	-0.033722	0.032043	0.028992	-0.021362	0.06958	0.007019	-0.036469	0.082092	-0.057678	0.029602	-0.012665	0.25482	0.016022	0.005341	-0.057526	-0.073242	-0.37003	-0.057678	0.11826	0.62698	0.069122	0.066833	0.023651	0.028534	-0.16296	-0.007629	0.054779	0.053253	0.001984	0.073547
53.771	0.01236	-0.037689	0.021057	0.030365	0.007019	0.022125	-0.011749	-0.00351	-0.019836	0.03067	-0.07309	0.016174	0.1799	0.30838	0.25116	0.00946	0.004425	-0.082703	-0.16541	-0.013275	-0.07431	0.56747	0.052643	-0.002136	0.039215	0.027466	-0.06134	-0.006714	0.047607	0.032196	0.000763	0.070953
53.772	0.014191	-0.048676	0.075531	0.016632	0.015411	0.010071	-0.097809	-0.005646	0.036316	-0.015869	-0.045166	0.015411	0.027466	0.26032	0.16953	0.007629	0.025635	-0.068207	-0.027008	-0.000153	-0.10468	0.52994	0.030365	0.00885	0.003967	0.033722	-0.1207	-0.005188	0.06012	0.0383	-0.000458	0.072021
